<?xml version="1.0" encoding="UTF-8" standalone="no"?>
<svg
   xmlns:dc="http://purl.org/dc/elements/1.1/"
   xmlns:cc="http://creativecommons.org/ns#"
   xmlns:rdf="http://www.w3.org/1999/02/22-rdf-syntax-ns#"
   xmlns:svg="http://www.w3.org/2000/svg"
   xmlns="http://www.w3.org/2000/svg"
   xmlns:xlink="http://www.w3.org/1999/xlink"
   id="svg8"
   version="1.1"
   viewBox="0 0 170 61"
   height="61mm"
   width="170mm">
  <defs
     id="defs2">
    <linearGradient
       id="linearGradient2340">
      <stop
         style="stop-color:#1c1c24;stop-opacity:1"
         offset="0"
         id="stop2336" />
      <stop
         style="stop-color:#8989a2;stop-opacity:0"
         offset="1"
         id="stop2338" />
    </linearGradient>
    <linearGradient
       xlink:href="#linearGradient2340"
       id="linearGradient2344"
       x1="590.99347"
       y1="458.48056"
       x2="590.99347"
       y2="522.64337"
       gradientUnits="userSpaceOnUse" />
  </defs>
  <metadata
     id="metadata5">
    <rdf:RDF>
      <cc:Work
         rdf:about="">
        <dc:format>image/svg+xml</dc:format>
        <dc:type
           rdf:resource="http://purl.org/dc/dcmitype/StillImage" />
        <dc:title></dc:title>
      </cc:Work>
    </rdf:RDF>
  </metadata>
  <g
     id="layer1">
    <g
       id="g964"
       transform="translate(-74.483538,-74.868687)">
      <path
         id="rect1422"
         style="fill:#5f5f5f;stroke-width:0.0777068;stroke-linecap:round;stroke-linejoin:round"
         d="m 111.06907,82.021963 48.41447,-1.542015 48.41447,1.542015 -5.66261,53.691917 h -85.07062 z" />
      <path
         style="fill:#dbdbdb;fill-opacity:1;stroke-width:0.293695;stroke-linecap:round;stroke-linejoin:round"
         d="m 523.36328,314.26562 -95.14648,3.0293 21.35547,188.08399 h 87.8164 l -82.8125,-5.15821 -20.65234,-178.23242 z"
         transform="scale(0.26458333)"
         id="path1434" />
      <path
         style="fill:#adadb4;fill-opacity:1;stroke-width:0.293695;stroke-linecap:round;stroke-linejoin:round"
         d="m 682.05273,314.25977 89.52735,7.72851 -19.17969,178.23242 -81.01758,5.15821 h 86.17578 l 19.83594,-188.08399 z"
         transform="scale(0.26458333)"
         id="path1425" />
      <g
         id="g2349"
         transform="translate(0,-13.758335)">
        <path
           id="path2323"
           style="fill:#5f5f5f;fill-opacity:1;stroke:none;stroke-width:2;stroke-opacity:0.6"
           d="m 328.91016,447.1543 2.9707,15.84765 -23.20117,25.77344 1.39258,6.69727 h -7.42188 l -20.04883,22.27148 6.24805,26.98633 h 102.0332 l 0.0605,0.39062 h 93.37305 29.34961 l 15.4121,-24.01562 h 28.26368 l 7.59179,24.01562 h 32.91602 39.21289 l 0.52539,-25.34961 -0.0957,-0.91015 h 9.625 l 23.52148,26.25976 h 33.63086 8.13672 93.19727 6.43164 35.53125 l 4.79882,-26.74218 -1.34765,-1.82813 h 0.45312 l 24.21094,28.57031 h 40.99024 l 6.27148,-27.08203 -66.69531,-70.62695 h -35.23828 l -3.53516,22.33008 h -0.95508 L 800.0644,447.41211 h -42.11133 -81.84765 -93.91602 -3.99804 -59.53516 -11.75 -70.21875 l -0.0312,-0.25781 z"
           transform="scale(0.26458333)" />
        <path
           d="m 89.192814,120.10949 1.23188,2.17847 -6.805584,7.56041 h 16.47815 l -2.129556,3.04544 H 80.877726 l -4.140941,4.60022 h 26.734375 l 6.93013,-11.51174 H 94.699281 l 2.088186,-2.60075 h 15.179493 l 0.89474,-1.48626 0.40483,0.46435 -9.03404,15.23902 h 23.47938 6.87552 l 4.13339,-6.44099 h 9.91451 l 2.03681,6.44099 h 7.49097 8.72971 l -0.7408,-7.04313 h 6.0411 l 6.30765,7.04313 h 8.69848 l -6.96072,-7.04313 h 3.06431 l -2.99495,-9.58391 2.52424,1.41046 5.18037,15.21658 h 26.03038 l -2.88852,-4.58199 h -16.083 l -4.21223,-9.53823 h 14.28226 l -0.99245,-1.57429 0.99884,0.47793 9.73503,15.21658 h 8.73036 l -5.64757,-7.66276 h 9.06696 l 6.49375,7.66276 h 8.69784 L 225.7727,120.17746 h -7.0099 l 5.00713,5.90852 h -8.64182 l -4.35468,-5.90852 h -10.23198 -21.65524 -24.08295 l 3.23887,2.18217 0.0832,10.49214 -5.28735,-12.67431 h -16.80353 l 2.6463,2.18217 -7.6711,10.65703 h -15.44278 l 1.51468,-3.08077 h 15.50198 l 1.17332,-3.87413 h -14.77054 l 1.27011,-2.58333 h 14.2828 l 0.99973,-3.30097 h -21.64318 l 0.0409,-0.068 z m 76.212426,3.34631 h 8.32452 l 0.68198,3.16829 h -8.67326 z m -21.72421,0.0226 h 2.55984 l 1.17372,3.71665 h -6.13507 z"
           style="font-style:normal;font-variant:normal;font-weight:normal;font-stretch:normal;font-size:25.4px;line-height:1.25;font-family:FalconsFont;-inkscape-font-specification:FalconsFont;letter-spacing:0px;word-spacing:0px;fill:#ffffff;fill-opacity:0.773161;stroke:none;stroke-width:0.268213"
           id="path1958" />
        <path
           id="path2328"
           style="font-style:normal;font-variant:normal;font-weight:normal;font-stretch:normal;font-size:25.4px;line-height:1.25;font-family:FalconsFont;-inkscape-font-specification:FalconsFont;letter-spacing:0px;word-spacing:0px;fill:url(#linearGradient2344);fill-opacity:1;stroke:none;stroke-width:1.01372"
           d="m 335.57812,474.70703 -11.04882,12.27539 h 61.04882 l -13.33984,19.07617 h -64.87109 l -8.84375,9.82422 h 90.40625 l 21.64453,-35.94922 h -60.5332 l 4.19336,-5.22656 z m 89.64649,0 -24.64649,41.57422 h 82.10938 23.92383 l 15.62109,-24.3457 h 42.30469 l 7.69922,24.3457 h 25.54101 1.66993 l -17.34375,-41.57422 h -22.88868 l 3.10157,9.81055 h -35.29297 l 6.33984,-9.81055 h -13.36914 l -22.9043,31.81641 h -66.37109 l 9.44141,-19.20899 h 58.13867 l 2.14844,-7.07812 h -56.80274 l 2.7168,-5.5293 z m 175.97851,0 0.32422,41.57422 h 25.04688 l -2.79688,-26.625 H 652.5 l 23.82812,26.625 h 22.14649 l -26.30859,-26.625 h 15.48632 l -4.66796,-14.94922 h -20.75391 l 1.64453,7.6543 h -40.86523 l -0.80665,-7.6543 z m 97.94532,0 14.15625,41.57422 h 88.82617 l -6.14844,-9.75781 h -61.16601 l -14.05079,-31.81641 z m 88.48242,0 26.5918,41.57422 h 23.45117 l -21.34766,-28.9668 h 43.50195 l 24.54493,28.9668 h 22.35156 L 867.4668,474.70703 h -18.32618 l 4.75977,5.61719 h -42.72656 l -4.14063,-5.61719 z"
           transform="scale(0.26458333)" />
      </g>
      <g
         transform="translate(40.070057,42.416158)"
         id="g911">
        <g
           id="g872"
           transform="rotate(-45,120.83419,44.037868)">
          <rect
             ry="1.274826"
             rx="2.2215712"
             y="52.435528"
             x="119.33758"
             height="15.149323"
             width="4.5477481"
             id="rect856"
             style="opacity:0.997;fill:#5f5f5f;fill-opacity:1;stroke-width:0.0790001;stroke-linecap:round;stroke-linejoin:round" />
          <path
             style="opacity:0.997;fill:#95959a;fill-opacity:1;stroke-width:0.0790001;stroke-linecap:round;stroke-linejoin:round"
             d="m 121.55859,53.535156 c -0.46701,0 -0.80625,0.101787 -1.02343,0.226563 -0.0191,0.01099 -0.0376,0.02306 -0.0527,0.0332 -0.0136,0.0091 -0.0249,0.01744 -0.0352,0.02539 -0.004,0.0029 -0.006,0.0051 -0.01,0.0078 v 12.365234 c 0.003,0.0027 0.006,0.0049 0.01,0.0078 0.0103,0.0079 0.0215,0.01629 0.0352,0.02539 0.0151,0.01011 0.0317,0.02029 0.0508,0.03125 0.2171,0.124457 0.55787,0.226563 1.02539,0.226563 h 0.10547 c 0.46752,0 0.8083,-0.102103 1.02539,-0.226563 0.0191,-0.01096 0.0357,-0.02114 0.0508,-0.03125 0.0136,-0.0091 0.0249,-0.01747 0.0352,-0.02539 0.004,-0.0029 0.006,-0.0051 0.01,-0.0078 V 53.828125 c -0.003,-0.0027 -0.006,-0.0049 -0.01,-0.0078 -0.0103,-0.008 -0.0215,-0.01626 -0.0352,-0.02539 -0.0151,-0.01014 -0.0336,-0.02221 -0.0527,-0.0332 -0.21719,-0.124777 -0.55643,-0.226563 -1.02344,-0.226563 z"
             id="rect860" />
          <path
             id="path865"
             d="m 122.15234,54.435547 c -0.13234,0 -0.13608,0.02588 -0.2207,0.04102 v 11.066407 c 0.0849,0.0151 0.0891,0.04102 0.2207,0.04102 h 0.10547 c 0.13158,0 0.1358,-0.0259 0.22071,-0.04102 V 54.476562 c -0.0846,-0.01513 -0.0883,-0.04102 -0.22071,-0.04102 z"
             style="opacity:0.997;fill:#dbdbdb;fill-opacity:1;stroke-width:0.0790001;stroke-linecap:round;stroke-linejoin:round" />
        </g>
        <circle
           style="opacity:0.997;fill:#5f5f5f;fill-opacity:1;stroke-width:0.0790001;stroke-linecap:round;stroke-linejoin:round"
           id="path852"
           cx="121.12193"
           cy="43.239132"
           r="10.631797" />
        <circle
           r="8.9068737"
           cy="43.239132"
           cx="121.12193"
           id="circle854"
           style="opacity:0.997;fill:#dbdbdb;fill-opacity:1;stroke-width:0.066183;stroke-linecap:round;stroke-linejoin:round" />
        <path
           id="circle874"
           style="opacity:0.997;fill:#ffffff;fill-opacity:0.996207;stroke-width:0.25014;stroke-linecap:round;stroke-linejoin:round"
           d="m 435.56641,138.13281 a 33.663775,33.663775 0 0 0 -11.44727,25.29102 33.663775,33.663775 0 0 0 33.66406,33.66406 33.663775,33.663775 0 0 0 24.32422,-10.39453 33.663775,33.663775 0 0 1 -22.21094,8.36719 33.663775,33.663775 0 0 1 -33.6621,-33.66407 33.663775,33.663775 0 0 1 9.33203,-23.26367 z"
           transform="scale(0.26458333)" />
        <path
           id="circle888"
           style="opacity:0.997;fill:#ffffff;fill-opacity:0.937202;stroke-width:0.25014;stroke-linecap:round;stroke-linejoin:round"
           d="m 457.59766,129.75977 a 33.663775,33.663775 0 0 0 -28.03711,15.31445 33.663775,33.663775 0 0 1 26.58203,-13.00977 33.663775,33.663775 0 0 1 33.66406,33.66211 33.663775,33.663775 0 0 1 -5.45117,18.36524 33.663775,33.663775 0 0 0 7.0918,-20.66797 33.663775,33.663775 0 0 0 -33.66407,-33.66406 33.663775,33.663775 0 0 0 -0.18554,0 z"
           transform="scale(0.26458333)" />
        <path
           id="circle895"
           style="opacity:0.997;fill:#ffffff;fill-opacity:0.997263;stroke-width:0.0548275;stroke-linecap:round;stroke-linejoin:round"
           d="m 123.21713,36.60787 a 8.0177393,7.3786359 84.472647 0 1 4.8652,6.791976 8.0177393,7.3786359 84.472647 0 1 -0.8355,4.607048 7.3786359,7.3786359 0 0 0 1.34104,-5.000184 7.3786359,7.3786359 0 0 0 -5.37074,-6.39884 z" />
      </g>
    </g>
  </g>
</svg>
